<svg xmlns="http://www.w3.org/2000/svg" xmlns:xlink="http://www.w3.org/1999/xlink" id="Layer_1" x="0" y="0" version="1.1" viewBox="0 0 83.3 83.1" xml:space="preserve" style="enable-background:new 0 0 83.3 83.1"><style type="text/css">.st0,.st1{fill:#fff}.st1{opacity:.3}</style><path d="M20.3,3v17.3H3V3H20.3 M23.3,0H0v23.3h23.3V0L23.3,0z" class="st0"/><path d="M50.3,3v17.3H33V3H50.3 M53.3,0H30v23.3h23.3V0L53.3,0z" class="st0"/><path d="M80.3,3v17.3H63V3H80.3 M83.3,0H60v23.3h23.3V0L83.3,0z" class="st0"/><path d="M20.3,32.9v17.3H3V32.9H20.3 M23.3,29.9H0v23.3h23.3V29.9L23.3,29.9z" class="st1"/><path d="M50.3,32.9v17.3H33V32.9H50.3 M53.3,29.9H30v23.3h23.3V29.9L53.3,29.9z" class="st1"/><path d="M80.3,32.9v17.3H63V32.9H80.3 M83.3,29.9H60v23.3h23.3V29.9L83.3,29.9z" class="st1"/><path d="M20.3,62.8v17.3H3V62.8H20.3 M23.3,59.8H0v23.3h23.3V59.8L23.3,59.8z" class="st1"/><path d="M50.3,62.8v17.3H33V62.8H50.3 M53.3,59.8H30v23.3h23.3V59.8L53.3,59.8z" class="st1"/><path d="M80.3,62.8v17.3H63V62.8H80.3 M83.3,59.8H60v23.3h23.3V59.8L83.3,59.8z" class="st1"/></svg>