<svg xmlns="http://www.w3.org/2000/svg" xmlns:xlink="http://www.w3.org/1999/xlink" id="Layer_1" x="0" y="0" version="1.1" viewBox="0 0 32 32" xml:space="preserve" style="enable-background:new 0 0 32 32"><style type="text/css">.st0{fill:#fff}</style><g><path d="M26,2.3C26,0.8,24.8,0,23.4,0H2.6C1.2,0,0,0.8,0,2.3V11h3V8.6H1.7L4.9,5h0.2l3.3,3.6H7V11h19V2.3z M7.6,4H1.9 C1.4,4,1,3.5,1,3s0.4-1,0.9-1h5.8c0.5,0,0.9,0.5,0.9,1S8.1,4,7.6,4z M16,4h-5.8C9.8,4,9.4,3.5,9.4,3s0.4-1,0.9-1H16 c0.5,0,0.9,0.5,0.9,1S16.5,4,16,4z M24.3,4h-5.8c-0.5,0-0.9-0.5-0.9-1s0.4-1,0.9-1h5.8c0.5,0,0.9,0.5,0.9,1S24.8,4,24.3,4z" class="st0"/></g></svg>